<svg width="94" height="48" viewBox="0 0 94 48" fill="none" xmlns="http://www.w3.org/2000/svg">
<path d="M67.7808 34.8345H64.8865V24.7421H53.8793V34.8345H51V13H53.8793V22.3876H64.8865V13H67.7808V34.8345Z" fill="#333333"/>
<path d="M77.0454 34.8345C76.9571 34.658 76.8854 34.3436 76.8302 33.8913C76.1187 34.6304 75.2693 35 74.2819 35C73.3994 35 72.674 34.7518 72.1059 34.2554C71.5433 33.7534 71.262 33.1191 71.262 32.3524C71.262 31.4202 71.615 30.6976 72.321 30.1847C73.0326 29.6662 74.031 29.4069 75.3161 29.4069H76.8054V28.7036C76.8054 28.1686 76.6455 27.7439 76.3255 27.4295C76.0056 27.1096 75.534 26.9496 74.9107 26.9496C74.3647 26.9496 73.9068 27.0875 73.5373 27.3633C73.1677 27.6391 72.9829 27.9728 72.9829 28.3644H71.444C71.444 27.9176 71.6012 27.4874 71.9156 27.0737C72.2355 26.6545 72.6658 26.3236 73.2063 26.0809C73.7524 25.8382 74.3509 25.7168 75.0017 25.7168C76.0332 25.7168 76.8413 25.9761 77.426 26.4945C78.0106 27.0075 78.314 27.7163 78.3361 28.6209V32.7413C78.3361 33.5631 78.4409 34.2167 78.6505 34.7021V34.8345H77.0454ZM74.5053 33.6679C74.9852 33.6679 75.4403 33.5438 75.8705 33.2956C76.3007 33.0474 76.6124 32.7247 76.8054 32.3276V30.4908H75.6057C73.7303 30.4908 72.7926 31.0396 72.7926 32.1373C72.7926 32.6171 72.9526 32.9922 73.2725 33.2625C73.5924 33.5328 74.0034 33.6679 74.5053 33.6679Z" fill="#333333"/>
<path d="M82.8122 23.7146V25.8823H84.4835V27.0654H82.8122V32.6171C82.8122 32.9757 82.8867 33.246 83.0356 33.428C83.1845 33.6045 83.4382 33.6927 83.7968 33.6927C83.9733 33.6927 84.216 33.6596 84.5249 33.5935V34.8345C84.1222 34.9448 83.7306 35 83.35 35C82.666 35 82.1503 34.7932 81.8028 34.3795C81.4553 33.9658 81.2815 33.3783 81.2815 32.6171V27.0654H79.6516V25.8823H81.2815V23.7146H82.8122Z" fill="#333333"/>
<path d="M91.8058 34.8345C91.7176 34.658 91.6458 34.3436 91.5907 33.8913C90.8791 34.6304 90.0297 35 89.0424 35C88.1598 35 87.4345 34.7518 86.8664 34.2554C86.3037 33.7534 86.0224 33.1191 86.0224 32.3524C86.0224 31.4202 86.3754 30.6976 87.0815 30.1847C87.793 29.6662 88.7914 29.4069 90.0766 29.4069H91.5659V28.7036C91.5659 28.1686 91.4059 27.7439 91.086 27.4295C90.7661 27.1096 90.2945 26.9496 89.6712 26.9496C89.1251 26.9496 88.6673 27.0875 88.2977 27.3633C87.9282 27.6391 87.7434 27.9728 87.7434 28.3644H86.2044C86.2044 27.9176 86.3617 27.4874 86.6761 27.0737C86.996 26.6545 87.4262 26.3236 87.9668 26.0809C88.5128 25.8382 89.1113 25.7168 89.7622 25.7168C90.7936 25.7168 91.6017 25.9761 92.1864 26.4945C92.7711 27.0075 93.0745 27.7163 93.0965 28.6209V32.7413C93.0965 33.5631 93.2013 34.2167 93.4109 34.7021V34.8345H91.8058ZM89.2658 33.6679C89.7456 33.6679 90.2007 33.5438 90.6309 33.2956C91.0612 33.0474 91.3728 32.7247 91.5659 32.3276V30.4908H90.3662C88.4908 30.4908 87.5531 31.0396 87.5531 32.1373C87.5531 32.6171 87.713 32.9922 88.033 33.2625C88.3529 33.5328 88.7638 33.6679 89.2658 33.6679Z" fill="#333333"/>
<path d="M72.0772 17.9327C72.0772 17.3298 72.1948 16.7875 72.4299 16.3059C72.6688 15.8243 72.9987 15.4527 73.4196 15.191C73.8444 14.9293 74.3279 14.7985 74.8701 14.7985C75.7082 14.7985 76.3851 15.0886 76.9008 15.6688C77.4204 16.249 77.6801 17.0207 77.6801 17.9839V18.0579C77.6801 18.657 77.5645 19.1955 77.3331 19.6733C77.1056 20.1473 76.7776 20.5171 76.3491 20.7825C75.9244 21.048 75.4352 21.1807 74.8815 21.1807C74.0472 21.1807 73.3703 20.8906 72.8508 20.3104C72.3351 19.7302 72.0772 18.9623 72.0772 18.0067V17.9327ZM73.1352 18.0579C73.1352 18.7405 73.2926 19.2884 73.6073 19.7018C73.9259 20.1151 74.3506 20.3218 74.8815 20.3218C75.4162 20.3218 75.8409 20.1132 76.1557 19.6961C76.4704 19.2752 76.6278 18.6874 76.6278 17.9327C76.6278 17.2577 76.4666 16.7117 76.1443 16.2945C75.8258 15.8736 75.401 15.6631 74.8701 15.6631C74.3506 15.6631 73.9316 15.8698 73.613 16.2831C73.2945 16.6965 73.1352 17.2881 73.1352 18.0579Z" fill="#333333"/>
<path d="M80.9395 19.6392L82.4639 14.9123H83.539L81.332 21.0669H80.5299L78.3001 14.9123H79.3752L80.9395 19.6392Z" fill="#333333"/>
<path d="M88.2602 21.0669C88.1996 20.9456 88.1503 20.7294 88.1123 20.4185C87.6231 20.9266 87.0392 21.1807 86.3604 21.1807C85.7536 21.1807 85.2549 21.0101 84.8644 20.6688C84.4776 20.3237 84.2842 19.8876 84.2842 19.3605C84.2842 18.7196 84.5269 18.2228 85.0122 17.8702C85.5014 17.5137 86.1878 17.3355 87.0714 17.3355H88.0953V16.852C88.0953 16.4841 87.9853 16.1921 87.7654 15.976C87.5454 15.756 87.2212 15.6461 86.7927 15.6461C86.4172 15.6461 86.1025 15.7409 85.8484 15.9305C85.5943 16.1201 85.4673 16.3495 85.4673 16.6187H84.4093C84.4093 16.3116 84.5174 16.0158 84.7335 15.7314C84.9535 15.4432 85.2493 15.2157 85.6209 15.0488C85.9963 14.8819 86.4078 14.7985 86.8552 14.7985C87.5644 14.7985 88.1199 14.9767 88.5219 15.3332C88.9239 15.6859 89.1324 16.1732 89.1476 16.7951V19.6278C89.1476 20.1929 89.2196 20.6422 89.3637 20.9759V21.0669H88.2602ZM86.5139 20.2649C86.8439 20.2649 87.1567 20.1796 87.4525 20.0089C87.7483 19.8383 87.9625 19.6164 88.0953 19.3434V18.0806H87.2705C85.9811 18.0806 85.3365 18.4579 85.3365 19.2126C85.3365 19.5425 85.4465 19.8004 85.6664 19.9862C85.8863 20.172 86.1689 20.2649 86.5139 20.2649Z" fill="#333333"/>
<path d="M5.87498 37.4765V11.2429C5.87486 10.8381 5.99845 10.4429 6.22898 10.1112C6.45951 9.77953 6.78581 9.52732 7.16356 9.38885L26.1026 2.45373C26.2505 2.3995 26.4093 2.38199 26.5654 2.40271C26.7215 2.42342 26.8703 2.48173 26.9992 2.5727C27.1282 2.66368 27.2334 2.78463 27.3061 2.92529C27.3788 3.06596 27.4167 3.22221 27.4166 3.38078V13.1503L39.7855 17.3023C40.1756 17.4332 40.5149 17.6844 40.7553 18.0204C40.9957 18.3563 41.1251 18.76 41.125 19.1742V37.4765H45.0416V41.4214H1.95831V37.4765H5.87498ZM9.79164 37.4765H23.5V7.60379L9.79164 12.6256V37.4765ZM37.2083 37.4765V20.5963L27.4166 17.3082V37.4765H37.2083Z" fill="#333333"/>
</svg>
